{"glyphs":{"0":{"ha":679,"x_min":26,"x_max":653,"o":"m 340 -8 l 340 -8 q 178 37 249 -8 q 67 163 107 83 q 26 348 26 244 l 26 348 q 67 531 26 451 q 178 657 107 611 q 340 703 249 703 l 340 703 q 465 676 408 703 q 564 602 522 650 q 630 490 606 555 q 653 348 653 425 l 653 348 q 613 164 653 245 q 502 38 572 84 q 340 -8 431 -8 m 340 163 l 340 163 q 419 212 390 163 q 447 348 447 261 l 447 348 q 419 482 447 433 q 340 532 390 532 l 340 532 q 261 483 289 532 q 232 348 232 434 l 232 348 q 262 213 232 263 q 340 163 291 163"},"1":{"ha":444,"x_min":48,"x_max":431,"o":"m 431 0 l 48 0 l 48 146 l 132 146 l 132 492 l 48 492 l 48 623 q 142 639 91 623 q 242 688 193 655 l 242 688 l 347 688 l 347 146 l 431 146 l 431 0"},"2":{"ha":519,"x_min":29,"x_max":481,"o":"m 477 0 l 41 0 l 41 141 q 216 326 153 247 q 279 459 279 406 l 279 459 q 259 511 279 494 q 207 529 239 529 l 207 529 q 78 488 140 529 l 78 488 l 29 644 q 131 688 75 673 q 240 703 186 703 l 240 703 q 375 674 322 703 q 455 595 428 645 q 481 481 481 545 l 481 481 q 420 302 481 384 q 236 146 358 220 l 236 146 l 477 146 l 477 0"},"3":{"ha":515,"x_min":22,"x_max":490,"o":"m 232 -11 l 232 -11 q 128 -1 180 -11 q 31 29 75 10 l 31 29 l 64 182 q 211 149 145 149 l 211 149 q 293 211 293 149 l 293 211 q 251 268 293 251 q 111 286 209 286 l 111 286 l 111 423 q 289 494 289 423 l 289 494 q 269 528 289 516 q 212 541 248 541 l 212 541 q 61 506 128 541 l 61 506 l 22 647 q 243 703 120 703 l 243 703 q 402 657 344 703 q 460 533 460 612 l 460 533 q 436 440 460 483 q 366 369 411 398 l 366 369 q 461 300 431 346 q 490 207 490 255 l 490 207 q 458 91 490 140 q 368 15 426 42 q 232 -11 310 -11"},"4":{"ha":626,"x_min":28,"x_max":614,"o":"m 518 0 l 305 0 l 305 162 l 28 162 l 28 310 l 294 688 l 518 688 l 518 308 l 614 308 l 614 162 l 518 162 l 518 0 m 305 518 l 175 308 l 305 308 l 305 518"},"5":{"ha":547,"x_min":42,"x_max":520,"o":"m 232 -13 l 232 -13 q 139 -4 186 -13 q 42 28 92 6 l 42 28 l 74 181 q 146 156 107 165 q 219 148 185 148 l 219 148 q 298 168 273 148 q 323 225 323 189 l 323 225 q 303 275 323 257 q 251 293 283 293 l 251 293 q 157 252 198 293 l 157 252 l 49 298 l 82 688 l 475 688 l 460 538 l 232 538 l 220 414 q 273 441 244 433 q 327 449 301 449 l 327 449 q 438 420 395 449 q 500 344 480 391 q 520 243 520 297 l 520 243 q 484 99 520 156 q 384 14 448 42 q 232 -13 319 -13"},"6":{"ha":593,"x_min":26,"x_max":584,"o":"m 26 317 l 26 317 q 70 518 26 432 q 192 654 114 605 q 373 703 270 703 l 373 703 q 554 654 482 703 l 554 654 l 513 510 q 451 534 482 526 q 391 543 420 543 l 391 543 q 277 493 319 543 q 226 353 234 444 l 226 353 q 288 417 248 393 q 374 441 328 441 l 374 441 q 485 415 438 441 q 558 343 532 390 q 584 233 584 296 l 584 233 q 551 107 584 162 q 457 23 517 53 q 317 -7 397 -7 l 317 -7 q 103 78 180 -7 q 26 317 26 164 m 226 269 l 226 269 q 318 137 237 137 l 318 137 q 380 160 356 137 q 403 220 403 183 l 403 220 q 380 274 403 254 q 318 295 357 295 l 318 295 q 226 269 266 295"},"7":{"ha":513,"x_min":26,"x_max":494,"o":"m 494 566 l 233 -17 l 51 60 l 274 542 l 26 542 l 26 688 l 494 688 l 494 566"},"8":{"ha":600,"x_min":22,"x_max":578,"o":"m 22 175 l 22 175 q 157 329 22 280 l 157 329 q 89 396 117 355 q 61 502 61 437 l 61 502 q 94 609 61 564 q 182 678 126 654 q 310 703 238 703 l 310 703 q 425 682 375 703 q 504 626 475 662 q 532 542 532 590 l 532 542 q 508 459 532 493 q 431 403 484 426 l 431 403 q 504 359 470 385 q 558 297 537 334 q 578 206 578 260 l 578 206 q 540 88 578 138 q 440 13 502 39 q 301 -13 377 -13 l 301 -13 q 155 10 217 -13 q 57 75 92 33 q 22 175 22 117 m 224 534 l 224 534 q 259 479 224 500 q 342 440 293 459 l 342 440 q 375 516 375 470 l 375 516 q 299 591 375 591 l 299 591 q 244 575 264 591 q 224 534 224 559 m 212 206 l 212 206 q 236 142 212 167 q 302 118 260 118 l 302 118 q 368 137 344 118 q 392 190 392 157 l 392 190 q 359 239 392 219 q 245 286 325 259 l 245 286 q 212 206 212 250"},"9":{"ha":593,"x_min":9,"x_max":567,"o":"m 9 463 l 9 463 q 42 587 9 533 q 134 672 74 641 q 276 703 194 703 l 276 703 q 438 662 373 703 q 535 548 502 621 q 567 379 567 476 l 567 379 q 524 178 567 266 q 402 42 480 91 q 220 -7 324 -7 l 220 -7 q 121 4 167 -7 q 39 42 75 16 l 39 42 l 80 186 q 140 161 109 170 q 202 153 171 153 l 202 153 q 318 203 275 153 q 367 343 360 254 l 367 343 q 300 276 342 297 q 219 255 257 255 l 219 255 q 108 281 155 255 q 35 354 60 307 q 9 463 9 401 m 190 476 l 190 476 q 214 421 190 442 q 275 401 237 401 l 275 401 q 323 407 299 401 q 367 427 347 414 l 367 427 q 275 559 356 559 l 275 559 q 213 536 236 559 q 190 476 190 513"}," ":{"ha":187,"x_min":0,"x_max":0,"o":""},"!":{"ha":305,"x_min":40,"x_max":265,"o":"m 219 252 l 87 252 l 47 535 l 47 690 l 258 690 l 258 535 l 219 252 m 153 -6 l 153 -6 q 69 23 98 -6 q 40 96 40 53 l 40 96 q 71 168 40 140 q 153 197 102 197 l 153 197 q 235 167 204 197 q 265 96 265 137 l 265 96 q 237 22 265 50 q 153 -6 208 -6"},"\"":{"ha":435,"x_min":30,"x_max":405,"o":"m 377 451 l 261 451 l 240 749 l 405 749 l 377 451 m 167 451 l 51 451 l 30 749 l 195 749 l 167 451"},"#":{"ha":600,"x_min":12,"x_max":588,"o":"m 199 0 l 66 0 l 99 188 l 12 188 l 34 312 l 121 312 l 132 376 l 46 376 l 68 500 l 154 500 l 187 688 l 320 688 l 287 500 l 368 500 l 401 688 l 534 688 l 501 500 l 588 500 l 566 376 l 479 376 l 468 312 l 554 312 l 532 188 l 446 188 l 413 0 l 280 0 l 313 188 l 232 188 l 199 0 m 265 376 l 254 312 l 335 312 l 346 376 l 265 376"},"$":{"ha":540,"x_min":17,"x_max":527,"o":"m 317 -85 l 232 -85 l 232 -11 q 118 5 174 -9 q 23 40 62 19 l 23 40 l 68 167 q 148 140 106 151 q 232 127 189 129 l 232 127 l 232 271 q 157 296 195 282 q 88 332 119 310 q 37 389 56 355 q 17 473 17 423 l 17 473 q 75 608 17 555 q 232 676 132 661 l 232 676 l 232 773 l 317 773 l 317 681 q 420 666 370 680 q 501 632 470 653 l 501 632 l 458 512 q 388 539 422 529 q 317 550 353 549 l 317 550 l 317 406 q 390 380 353 395 q 458 342 427 365 q 508 286 489 320 q 527 205 527 253 l 527 205 q 472 62 527 116 q 317 -6 416 8 l 317 -6 l 317 -85 m 179 489 l 179 489 q 194 457 179 470 q 232 435 208 445 l 232 435 l 232 542 q 179 489 179 528 m 317 243 l 317 134 q 367 191 367 150 l 367 191 q 354 221 367 209 q 317 243 340 233 l 317 243"},"%":{"ha":884,"x_min":24,"x_max":860,"o":"m 205 308 l 205 308 q 108 332 149 308 q 46 399 67 357 q 24 493 24 441 l 24 493 q 49 602 24 556 q 115 673 73 648 q 208 698 156 698 l 208 698 q 301 672 260 698 q 365 604 341 647 q 388 506 388 561 l 388 506 q 365 402 388 447 q 301 333 342 358 q 205 308 259 308 m 267 0 l 127 0 l 617 688 l 757 688 l 267 0 m 205 406 l 205 406 q 248 433 231 406 q 264 503 264 460 l 264 503 q 249 571 264 544 q 207 598 234 598 l 207 598 q 166 572 183 598 q 148 503 148 546 l 148 503 q 163 433 148 461 q 205 406 177 406 m 677 -8 l 677 -8 q 580 16 621 -8 q 518 83 539 41 q 496 177 496 125 l 496 177 q 521 286 496 240 q 587 357 545 332 q 680 382 628 382 l 680 382 q 773 356 732 382 q 837 288 813 331 q 860 190 860 245 l 860 190 q 837 86 860 131 q 773 17 814 42 q 677 -8 731 -8 m 677 90 l 677 90 q 720 117 703 90 q 736 187 736 144 l 736 187 q 721 255 736 228 q 679 282 706 282 l 679 282 q 638 256 655 282 q 620 187 620 230 l 620 187 q 635 117 620 145 q 677 90 649 90"},"&":{"ha":701,"x_min":18,"x_max":688,"o":"m 670 85 l 556 -29 l 478 48 q 374 1 429 18 q 260 -16 319 -16 l 260 -16 q 134 8 188 -16 q 49 74 79 32 q 18 172 18 117 l 18 172 q 39 255 18 221 q 93 315 59 290 q 165 358 126 340 l 165 358 l 150 373 q 109 436 122 401 q 96 509 96 472 l 96 509 q 126 601 96 560 q 208 666 155 642 q 327 690 260 690 l 327 690 q 490 643 428 690 q 551 518 551 596 l 551 518 q 533 438 551 472 q 484 381 514 405 q 417 340 453 358 l 417 340 l 498 258 q 531 297 514 276 q 567 344 548 319 l 567 344 l 688 259 q 604 152 649 200 l 604 152 l 670 85 m 280 512 l 280 512 q 287 481 280 498 q 316 441 293 464 l 316 441 l 327 430 q 372 466 355 447 q 389 514 389 486 l 389 514 q 375 552 389 538 q 335 566 361 566 l 335 566 q 295 551 309 566 q 280 512 280 536 m 201 190 l 201 190 q 223 147 201 163 q 290 132 244 132 l 290 132 q 332 136 311 132 q 374 151 352 141 l 374 151 l 257 267 q 217 233 232 252 q 201 190 201 215"},"'":{"ha":225,"x_min":30,"x_max":195,"o":"m 167 451 l 51 451 l 30 749 l 195 749 l 167 451"},"(":{"ha":417,"x_min":20,"x_max":395,"o":"m 395 -67 l 395 -194 q 190 -123 274 -183 q 63 37 106 -62 q 20 261 20 136 l 20 261 q 66 488 20 393 q 196 640 112 584 q 395 707 280 696 l 395 707 l 395 581 q 284 488 325 569 q 243 261 243 407 l 243 261 q 258 102 243 173 q 307 -13 273 32 q 395 -67 340 -57 l 395 -67"},")":{"ha":417,"x_min":22,"x_max":397,"o":"m 22 -194 l 22 -194 l 22 -67 q 134 27 93 -55 q 175 261 175 110 l 175 261 q 136 484 175 400 q 22 581 96 569 l 22 581 l 22 707 q 230 634 147 695 q 355 478 313 574 q 397 261 397 382 l 397 261 q 353 33 397 132 q 225 -124 308 -65 q 22 -194 141 -183"},"*":{"ha":493,"x_min":10,"x_max":483,"o":"m 244 376 l 150 231 l 50 313 l 164 432 l 10 499 l 63 605 l 198 524 l 187 688 l 309 688 l 296 525 l 427 607 l 483 499 l 327 432 l 441 312 l 340 231 l 244 376"},"+":{"ha":600,"x_min":60,"x_max":540,"o":"m 381 0 l 219 0 l 219 173 l 60 173 l 60 328 l 219 328 l 219 501 l 381 501 l 381 328 l 540 328 l 540 173 l 381 173 l 381 0"},",":{"ha":285,"x_min":30,"x_max":255,"o":"m 70 -169 l 70 -169 l 35 -81 q 123 -6 123 -51 l 123 -6 q 57 23 83 -6 q 30 96 30 52 l 30 96 q 61 168 30 140 q 140 197 91 197 l 140 197 q 225 159 194 197 q 255 57 255 122 l 255 57 q 207 -87 255 -28 q 70 -169 159 -146"},"-":{"ha":361,"x_min":46,"x_max":315,"o":"m 315 173 l 46 173 l 46 329 l 315 329 l 315 173"},".":{"ha":285,"x_min":30,"x_max":255,"o":"m 143 -6 l 143 -6 q 59 23 88 -6 q 30 96 30 53 l 30 96 q 61 168 30 140 q 143 197 92 197 l 143 197 q 225 167 194 197 q 255 96 255 137 l 255 96 q 227 22 255 50 q 143 -6 198 -6"},"/":{"ha":480,"x_min":10,"x_max":470,"o":"m 204 0 l 10 0 l 276 688 l 470 688 l 204 0"},":":{"ha":285,"x_min":30,"x_max":255,"o":"m 143 -6 l 143 -6 q 59 23 88 -6 q 30 96 30 53 l 30 96 q 61 168 30 140 q 143 197 92 197 l 143 197 q 225 167 194 197 q 255 96 255 137 l 255 96 q 227 22 255 50 q 143 -6 198 -6 m 143 308 l 143 308 q 59 337 88 308 q 30 410 30 367 l 30 410 q 61 482 30 454 q 143 511 92 511 l 143 511 q 225 481 194 511 q 255 410 255 451 l 255 410 q 227 336 255 364 q 143 308 198 308"},";":{"ha":285,"x_min":30,"x_max":255,"o":"m 70 -169 l 70 -169 l 35 -81 q 123 -6 123 -51 l 123 -6 q 57 23 83 -6 q 30 96 30 52 l 30 96 q 61 168 30 140 q 140 197 91 197 l 140 197 q 225 159 194 197 q 255 57 255 122 l 255 57 q 207 -87 255 -28 q 70 -169 159 -146 m 143 308 l 143 308 q 59 337 88 308 q 30 410 30 367 l 30 410 q 61 482 30 454 q 143 511 92 511 l 143 511 q 225 481 194 511 q 255 410 255 451 l 255 410 q 227 336 255 364 q 143 308 198 308"},"<":{"ha":600,"x_min":60,"x_max":540,"o":"m 540 140 l 540 -10 l 60 206 l 60 374 l 540 590 l 540 440 l 184 290 l 540 140"},"=":{"ha":600,"x_min":60,"x_max":540,"o":"m 540 277 l 60 277 l 60 411 l 540 411 l 540 277 m 540 90 l 60 90 l 60 224 l 540 224 l 540 90"},">":{"ha":600,"x_min":60,"x_max":540,"o":"m 540 206 l 60 -10 l 60 140 l 416 290 l 60 440 l 60 590 l 540 374 l 540 206"},"?":{"ha":475,"x_min":18,"x_max":461,"o":"m 237 254 l 97 254 q 85 295 90 275 q 80 332 80 316 l 80 332 q 97 392 80 369 q 137 431 113 416 q 185 457 161 447 q 225 478 208 468 q 241 501 241 488 l 241 501 q 162 533 241 533 l 162 533 q 32 507 92 533 l 32 507 l 18 659 q 113 692 59 681 q 219 703 167 703 l 219 703 q 346 679 291 703 q 431 614 400 656 q 461 517 461 572 l 461 517 q 445 443 461 472 q 404 395 429 414 q 349 363 378 376 q 295 339 320 351 q 253 312 269 327 q 237 273 237 297 l 237 273 l 237 254 m 166 -6 l 166 -6 q 84 22 115 -6 q 53 96 53 50 l 53 96 q 85 169 53 141 q 166 197 116 197 l 166 197 q 246 168 214 197 q 278 96 278 140 l 278 96 q 249 21 278 48 q 166 -6 219 -6"},"@":{"ha":864,"x_min":34,"x_max":824,"o":"m 582 175 l 582 175 l 491 175 l 491 233 q 450 184 475 199 q 389 170 425 170 l 389 170 q 310 193 345 170 q 255 257 275 217 q 235 349 235 298 l 235 349 q 255 439 235 400 q 310 501 275 479 q 389 524 345 524 l 389 524 q 452 506 424 524 q 493 450 479 488 l 493 450 l 493 519 l 623 519 l 623 283 q 688 316 665 283 q 711 414 711 349 l 711 414 q 642 563 711 511 q 444 615 573 615 l 444 615 q 295 581 359 615 q 194 486 230 547 q 157 346 157 426 l 157 346 q 193 208 157 268 q 292 114 228 148 q 439 81 356 81 l 439 81 q 542 92 495 81 q 640 131 589 104 l 640 131 l 684 46 q 572 -5 630 11 q 439 -21 513 -21 l 439 -21 q 228 25 319 -21 q 85 153 136 71 q 34 345 34 236 l 34 345 q 65 495 34 427 q 151 613 95 563 q 282 690 206 663 q 448 718 358 718 l 448 718 q 646 681 561 718 q 777 576 730 644 q 824 416 824 508 l 824 416 q 759 240 824 305 q 582 175 694 175 m 429 278 l 429 278 q 473 298 455 278 q 491 348 491 319 l 491 348 q 473 396 491 377 q 429 416 455 416 l 429 416 q 385 396 403 416 q 367 347 367 376 l 367 347 q 385 298 367 319 q 429 278 403 278"},"A":{"ha":716,"x_min":4,"x_max":717,"o":"m 239 0 l 4 0 l 194 688 l 518 688 l 717 0 l 472 0 l 446 132 l 268 132 l 239 0 m 357 556 l 289 255 l 422 255 l 357 556"},"B":{"ha":711,"x_min":55,"x_max":686,"o":"m 315 0 l 315 0 l 55 0 l 55 688 l 336 688 q 578 642 501 688 q 655 517 655 597 l 655 517 q 546 374 655 413 l 546 374 q 686 209 686 347 l 686 209 q 590 51 686 103 q 315 0 493 0 m 278 551 l 278 416 l 357 416 q 422 434 397 416 q 447 482 447 452 l 447 482 q 353 551 447 551 l 353 551 l 278 551 m 277 141 l 363 141 q 440 161 413 141 q 467 217 467 181 l 467 217 q 440 277 467 256 q 363 299 413 299 l 363 299 l 277 299 l 277 141"},"C":{"ha":591,"x_min":26,"x_max":574,"o":"m 384 -16 l 384 -16 q 196 27 276 -16 q 71 150 115 71 q 26 334 26 229 l 26 334 q 73 525 26 442 q 201 655 119 608 q 388 703 282 703 l 388 703 q 573 657 506 703 l 573 657 l 546 498 q 486 518 517 512 q 426 525 454 525 l 426 525 q 297 476 344 525 q 250 340 250 427 l 250 340 q 296 211 250 258 q 422 165 341 165 l 422 165 q 481 171 454 165 q 546 193 507 177 l 546 193 l 574 35 q 384 -16 487 -16"},"D":{"ha":748,"x_min":55,"x_max":722,"o":"m 284 0 l 55 0 l 55 688 l 294 688 q 539 645 444 688 q 678 526 633 602 q 722 349 722 450 l 722 349 q 614 92 722 184 q 284 0 505 0 l 284 0 m 276 513 l 276 175 l 340 175 q 459 223 420 175 q 498 351 498 272 l 498 351 q 461 468 498 424 q 340 513 423 513 l 340 513 l 276 513"},"E":{"ha":573,"x_min":55,"x_max":538,"o":"m 538 0 l 55 0 l 55 688 l 538 688 l 538 536 l 298 536 l 298 414 l 517 414 l 517 288 l 298 288 l 298 157 l 538 157 l 538 0"},"F":{"ha":556,"x_min":55,"x_max":529,"o":"m 270 0 l 55 0 l 55 688 l 529 688 l 529 536 l 270 536 l 270 397 l 510 397 l 510 263 l 270 263 l 270 0"},"G":{"ha":656,"x_min":26,"x_max":612,"o":"m 381 -16 l 381 -16 q 194 28 273 -16 q 70 150 114 72 q 26 330 26 228 l 26 330 q 72 523 26 439 q 201 655 118 607 q 394 703 284 703 l 394 703 q 585 655 514 703 l 585 655 l 555 498 q 424 525 492 525 l 424 525 q 295 476 342 525 q 248 340 248 427 l 248 340 q 291 203 248 252 q 399 154 333 154 l 399 154 q 439 158 423 154 l 439 158 l 439 329 l 612 349 l 612 36 q 496 -3 555 10 q 381 -16 437 -16"},"H":{"ha":774,"x_min":55,"x_max":719,"o":"m 280 0 l 55 0 l 55 688 l 280 688 l 280 429 l 493 429 l 493 688 l 719 688 l 719 0 l 493 0 l 493 271 l 280 271 l 280 0"},"I":{"ha":336,"x_min":55,"x_max":281,"o":"m 281 0 l 55 0 l 55 688 l 281 688 l 281 0"},"J":{"ha":426,"x_min":-15,"x_max":375,"o":"m 150 -16 l 150 -16 q 58 -4 103 -16 q -15 35 13 9 l -15 35 l 30 167 q 61 156 44 161 q 93 151 77 151 l 93 151 q 160 227 160 151 l 160 227 l 160 688 l 375 688 l 375 240 q 317 49 375 114 q 150 -16 259 -16"},"K":{"ha":742,"x_min":55,"x_max":767,"o":"m 287 0 l 55 0 l 55 688 l 287 688 l 287 414 l 358 414 l 492 688 l 742 688 l 560 347 l 767 0 l 503 0 l 355 265 l 287 265 l 287 0"},"L":{"ha":536,"x_min":55,"x_max":515,"o":"m 505 0 l 55 0 l 55 688 l 271 688 l 271 158 l 515 158 l 505 0"},"M":{"ha":866,"x_min":55,"x_max":811,"o":"m 263 0 l 55 0 l 55 688 l 263 688 l 435 354 l 603 688 l 811 688 l 811 0 l 603 0 l 603 360 l 476 120 l 391 120 l 263 360 l 263 0"},"N":{"ha":764,"x_min":55,"x_max":709,"o":"m 239 0 l 55 0 l 55 688 l 255 688 l 525 323 l 525 688 l 709 688 l 709 0 l 509 0 l 239 350 l 239 0"},"O":{"ha":788,"x_min":26,"x_max":762,"o":"m 394 -16 l 394 -16 q 202 30 285 -16 q 73 157 119 76 q 26 343 26 238 l 26 343 q 73 530 26 449 q 202 657 119 611 q 394 703 285 703 l 394 703 q 586 657 503 703 q 716 531 669 612 q 762 343 762 450 l 762 343 q 716 157 762 238 q 586 30 669 76 q 394 -16 503 -16 m 394 166 l 394 166 q 498 215 457 166 q 538 344 538 264 l 538 344 q 520 439 538 398 q 469 503 501 480 q 393 527 436 527 l 393 527 q 290 476 330 527 q 250 344 250 426 l 250 344 q 290 215 250 264 q 394 166 330 166"},"P":{"ha":647,"x_min":55,"x_max":631,"o":"m 276 0 l 55 0 l 55 689 l 288 689 q 545 633 458 689 q 631 470 631 578 l 631 470 q 594 342 631 395 q 488 262 556 290 q 328 235 420 235 l 328 235 l 276 235 l 276 0 m 276 374 l 319 374 q 401 396 372 374 q 430 462 430 418 l 430 462 q 402 523 430 503 q 321 544 374 544 l 321 544 l 276 544 l 276 374"},"Q":{"ha":788,"x_min":26,"x_max":821,"o":"m 821 -61 l 668 -180 l 415 -14 q 393 -16 403 -16 l 393 -16 q 202 30 285 -16 q 73 157 119 76 q 26 343 26 238 l 26 343 q 73 530 26 449 q 202 657 119 611 q 394 703 285 703 l 394 703 q 586 657 503 703 q 716 531 669 612 q 762 343 762 450 l 762 343 q 730 187 762 261 q 634 61 697 114 l 634 61 l 821 -61 m 394 166 l 394 166 q 498 215 457 166 q 538 344 538 264 l 538 344 q 520 439 538 398 q 469 503 501 480 q 393 527 436 527 l 393 527 q 290 476 330 527 q 250 344 250 426 l 250 344 q 290 215 250 264 q 394 166 330 166"},"R":{"ha":676,"x_min":55,"x_max":670,"o":"m 576 -16 l 576 -16 q 457 5 504 -16 q 382 65 410 27 q 340 154 354 103 q 321 264 326 205 l 321 264 l 274 264 l 274 0 l 55 0 l 55 688 l 338 688 q 575 630 502 688 q 647 475 647 573 l 647 475 q 615 369 647 416 q 512 292 583 323 l 512 292 q 519 256 516 270 q 528 225 522 242 l 528 225 q 561 175 541 189 q 614 161 580 161 l 614 161 q 658 167 636 161 l 658 167 l 670 3 q 628 -11 650 -5 q 576 -16 605 -16 m 274 539 l 274 401 l 312 401 q 417 417 386 401 q 447 474 447 434 l 447 474 q 422 523 447 508 q 343 539 397 539 l 343 539 l 274 539"},"S":{"ha":563,"x_min":26,"x_max":550,"o":"m 265 -16 l 265 -16 q 137 -1 202 -16 q 27 41 72 15 l 27 41 l 63 204 q 172 163 121 173 q 265 154 222 154 l 265 154 q 326 167 305 154 q 346 202 346 180 l 346 202 q 323 233 346 222 q 264 255 300 245 q 186 278 227 265 q 109 314 145 292 q 49 374 72 337 q 26 469 26 412 l 26 469 q 61 593 26 541 q 161 674 96 646 q 314 703 226 703 l 314 703 q 430 687 373 703 q 520 646 486 672 l 520 646 l 486 499 q 395 529 435 520 q 318 539 354 539 l 318 539 q 254 527 276 539 q 232 495 232 515 l 232 495 q 255 464 232 476 q 314 441 278 452 q 391 416 350 430 q 468 379 432 402 q 527 319 504 356 q 550 226 550 282 l 550 226 q 475 47 550 110 q 265 -16 399 -16"},"T":{"ha":559,"x_min":8,"x_max":551,"o":"m 396 0 l 163 0 l 163 530 l 8 530 l 8 688 l 551 688 l 551 530 l 396 530 l 396 0"},"U":{"ha":762,"x_min":41,"x_max":721,"o":"m 377 -16 l 377 -16 q 201 20 277 -16 q 83 123 125 56 q 41 285 41 191 l 41 285 l 41 688 l 263 688 l 263 295 q 296 196 263 228 q 381 165 328 165 l 381 165 q 467 197 437 165 q 496 285 496 229 l 496 285 l 496 688 l 721 688 l 721 285 q 677 128 721 196 q 556 22 633 60 q 377 -16 478 -16"},"V":{"ha":667,"x_min":-1,"x_max":673,"o":"m 458 0 l 203 0 l -1 688 l 235 688 l 341 259 l 447 688 l 673 688 l 458 0"},"W":{"ha":994,"x_min":23,"x_max":971,"o":"m 412 0 l 179 0 l 23 688 l 248 688 l 313 259 l 380 571 l 613 571 l 681 259 l 746 688 l 971 688 l 815 0 l 582 0 l 497 377 l 412 0"},"X":{"ha":633,"x_min":0,"x_max":632,"o":"m 227 0 l 0 0 l 191 342 l 6 688 l 233 688 l 314 504 l 395 688 l 626 688 l 440 342 l 632 0 l 401 0 l 314 181 l 227 0"},"Y":{"ha":592,"x_min":-13,"x_max":608,"o":"m 400 0 l 185 0 l 185 191 l -13 688 l 202 688 l 299 384 l 394 688 l 608 688 l 400 191 l 400 0"},"Z":{"ha":510,"x_min":28,"x_max":497,"o":"m 497 0 l 28 0 l 28 145 l 264 530 l 37 530 l 37 688 l 492 688 l 492 542 l 260 158 l 497 158 l 497 0"},"[":{"ha":435,"x_min":58,"x_max":413,"o":"m 413 -180 l 58 -180 l 58 688 l 413 688 l 413 542 l 273 542 l 273 -34 l 413 -34 l 413 -180"},"\\":{"ha":480,"x_min":10,"x_max":470,"o":"m 470 0 l 276 0 l 10 688 l 204 688 l 470 0"},"]":{"ha":435,"x_min":22,"x_max":377,"o":"m 377 -180 l 22 -180 l 22 -34 l 162 -34 l 162 542 l 22 542 l 22 688 l 377 688 l 377 -180"},"^":{"ha":600,"x_min":20,"x_max":580,"o":"m 384 560 l 580 60 l 430 60 l 300 436 l 170 60 l 20 60 l 216 560 l 384 560"},"_":{"ha":475,"x_min":47,"x_max":428,"o":"m 428 -156 l 47 -156 l 47 0 l 428 0 l 428 -156"},"`":{"ha":600,"x_min":78,"x_max":472,"o":"m 472 663 l 411 556 l 78 689 l 179 868 l 472 663"},"a":{"ha":695,"x_min":25,"x_max":645,"o":"m 271 -8 l 271 -8 q 146 25 202 -8 q 58 118 90 59 q 25 253 25 177 l 25 253 q 58 386 25 329 q 146 475 90 443 q 271 508 202 508 l 271 508 q 366 481 320 508 q 437 392 412 454 l 437 392 l 437 501 l 645 501 l 645 0 l 435 0 l 435 93 q 371 18 411 44 q 271 -8 331 -8 m 336 150 l 336 150 q 406 179 377 150 q 435 252 435 209 l 435 252 q 406 322 435 295 q 336 350 377 350 l 336 350 q 264 321 293 350 q 235 250 235 292 l 235 250 q 264 179 235 208 q 336 150 293 150"},"b":{"ha":695,"x_min":50,"x_max":670,"o":"m 424 -8 l 424 -8 q 324 18 364 -8 q 260 93 284 44 l 260 93 l 260 0 l 50 0 l 50 659 l 262 690 l 262 398 q 331 481 286 455 q 424 508 375 508 l 424 508 q 550 475 494 508 q 638 386 605 443 q 670 253 670 329 l 670 253 q 638 118 670 177 q 550 25 605 59 q 424 -8 494 -8 m 359 150 l 359 150 q 431 179 402 150 q 460 250 460 208 l 460 250 q 431 321 460 292 q 359 350 402 350 l 359 350 q 289 322 318 350 q 260 252 260 295 l 260 252 q 289 179 260 209 q 359 150 318 150"},"c":{"ha":475,"x_min":25,"x_max":450,"o":"m 297 -8 l 297 -8 q 152 25 213 -8 q 58 115 91 58 q 25 248 25 173 l 25 248 q 59 381 25 322 q 155 474 93 440 q 297 508 216 508 l 297 508 q 450 468 394 508 l 450 468 l 428 332 q 381 347 403 343 q 339 352 359 352 l 339 352 q 262 324 290 352 q 233 250 233 297 l 233 250 q 261 175 233 204 q 335 147 289 147 l 335 147 q 429 164 375 147 l 429 164 l 448 24 q 380 0 415 8 q 297 -8 344 -8"},"d":{"ha":694,"x_min":25,"x_max":644,"o":"m 271 -8 l 271 -8 q 146 25 202 -8 q 58 118 90 59 q 25 253 25 177 l 25 253 q 58 386 25 329 q 146 475 90 443 q 271 508 202 508 l 271 508 q 366 481 320 508 q 433 396 411 455 l 433 396 l 433 659 l 644 690 l 644 0 l 435 0 l 435 93 q 371 18 411 44 q 271 -8 331 -8 m 336 150 l 336 150 q 406 179 377 150 q 435 252 435 209 l 435 252 q 406 322 435 295 q 336 350 377 350 l 336 350 q 264 321 293 350 q 235 250 235 292 l 235 250 q 264 179 235 208 q 336 150 293 150"},"e":{"ha":555,"x_min":25,"x_max":535,"o":"m 361 132 l 361 132 q 423 138 390 132 q 489 160 455 144 l 489 160 l 513 31 q 433 2 476 12 q 333 -8 389 -8 l 333 -8 q 164 25 232 -8 q 60 116 95 58 q 25 250 25 174 l 25 250 q 63 386 25 328 q 163 476 100 444 q 302 508 226 508 l 302 508 q 475 437 415 508 q 535 237 535 367 l 535 237 l 237 199 q 361 132 270 132 m 221 291 l 221 291 l 378 324 q 356 371 374 356 q 311 387 338 387 l 311 387 q 248 359 271 387 q 221 291 224 332"},"f":{"ha":390,"x_min":0,"x_max":408,"o":"m 274 0 l 63 0 l 63 377 l 0 377 l 0 501 l 63 501 l 63 530 q 90 624 63 585 q 165 685 117 664 q 276 707 213 707 l 276 707 q 408 685 356 707 l 408 685 l 394 558 q 351 565 372 563 q 310 568 330 568 l 310 568 q 243 527 243 568 l 243 527 q 250 501 243 514 l 250 501 l 391 501 l 391 377 l 274 377 l 274 0"},"g":{"ha":701,"x_min":25,"x_max":651,"o":"m 348 -195 l 348 -195 q 277 -190 310 -195 q 225 -178 244 -185 l 225 -178 l 241 -33 q 280 -40 259 -37 q 321 -42 301 -42 l 321 -42 q 418 -14 388 -42 q 447 72 447 14 l 447 72 l 447 119 q 378 38 419 64 q 275 12 337 12 l 275 12 q 147 44 204 12 q 58 133 90 77 q 25 263 25 190 l 25 263 q 58 391 25 336 q 147 477 90 446 q 275 508 204 508 l 275 508 q 371 481 325 508 q 441 396 417 455 l 441 396 l 441 501 l 651 501 l 651 117 q 572 -119 651 -43 q 348 -195 493 -195 m 340 170 l 340 170 q 412 197 383 170 q 441 262 441 224 l 441 262 q 412 325 441 300 q 340 350 383 350 l 340 350 q 265 324 294 350 q 235 260 235 298 l 235 260 q 265 196 235 223 q 340 170 294 170"},"h":{"ha":686,"x_min":50,"x_max":641,"o":"m 261 0 l 50 0 l 50 659 l 261 690 l 261 398 q 327 479 282 450 q 435 508 372 508 l 435 508 q 587 440 533 508 q 641 250 641 373 l 641 250 l 641 0 l 430 0 l 430 261 q 358 350 430 350 l 358 350 q 288 318 315 350 q 261 234 261 287 l 261 234 l 261 0"},"i":{"ha":357,"x_min":41,"x_max":356,"o":"m 235 -8 l 235 -8 q 127 16 168 -8 q 66 81 85 40 q 47 173 47 122 l 47 173 l 47 501 l 258 501 l 258 202 q 272 166 258 179 q 304 154 285 154 l 304 154 q 345 166 324 154 l 345 166 l 356 27 q 299 1 334 10 q 235 -8 264 -8 m 153 556 l 153 556 q 74 585 107 556 q 41 658 41 615 l 41 658 q 57 710 41 688 q 99 746 73 733 q 153 759 125 759 l 153 759 q 210 745 184 759 q 251 708 235 731 q 266 658 266 685 l 266 658 q 250 605 266 628 q 208 569 233 582 q 153 556 182 556"},"j":{"ha":322,"x_min":-100,"x_max":280,"o":"m 37 -195 l 37 -195 q -39 -188 -4 -195 q -100 -169 -74 -180 l -100 -169 l -70 -26 q -36 -35 -53 -32 q -5 -38 -19 -38 l -5 -38 q 46 -20 30 -38 q 61 38 61 -2 l 61 38 l 61 501 l 272 501 l 272 56 q 214 -130 272 -65 q 37 -195 156 -195 m 167 556 l 167 556 q 88 585 121 556 q 55 658 55 615 l 55 658 q 71 710 55 688 q 113 746 87 733 q 167 759 139 759 l 167 759 q 224 745 198 759 q 265 708 249 731 q 280 658 280 685 l 280 658 q 264 605 280 628 q 222 569 247 582 q 167 556 196 556"},"k":{"ha":626,"x_min":50,"x_max":617,"o":"m 261 147 l 261 0 l 50 0 l 50 659 l 261 690 l 261 347 l 496 538 l 604 399 l 463 281 q 504 181 477 210 q 574 153 531 153 l 574 153 q 617 159 592 153 l 617 159 l 602 -2 q 568 -7 583 -6 q 539 -8 553 -8 l 539 -8 q 383 39 440 -8 q 298 179 325 87 l 298 179 l 261 147"},"l":{"ha":375,"x_min":47,"x_max":375,"o":"m 247 -8 l 247 -8 q 132 16 176 -8 q 67 81 87 40 q 47 173 47 122 l 47 173 l 47 679 l 258 710 l 258 202 q 273 166 258 179 q 312 154 288 154 l 312 154 q 360 166 336 154 l 360 166 l 375 27 q 314 1 351 10 q 247 -8 277 -8"},"m":{"ha":1026,"x_min":50,"x_max":981,"o":"m 261 0 l 50 0 l 50 501 l 258 501 l 258 392 q 322 478 280 448 q 426 508 363 508 l 426 508 q 532 477 488 508 q 593 399 575 447 l 593 399 q 674 479 627 450 q 786 508 720 508 l 786 508 q 930 440 879 508 q 981 250 981 373 l 981 250 l 981 0 l 770 0 l 770 261 q 707 350 770 350 l 707 350 q 645 318 668 350 q 621 234 621 287 l 621 234 l 621 0 l 410 0 l 410 261 q 394 329 410 308 q 347 350 378 350 l 347 350 q 285 319 308 350 q 261 234 261 289 l 261 234 l 261 0"},"n":{"ha":686,"x_min":50,"x_max":641,"o":"m 261 0 l 50 0 l 50 501 l 258 501 l 258 392 q 327 478 281 448 q 435 508 372 508 l 435 508 q 587 440 533 508 q 641 250 641 373 l 641 250 l 641 0 l 430 0 l 430 261 q 358 350 430 350 l 358 350 q 288 318 315 350 q 261 234 261 287 l 261 234 l 261 0"},"o":{"ha":627,"x_min":25,"x_max":602,"o":"m 313 -8 l 313 -8 q 163 25 228 -8 q 62 116 98 58 q 25 251 25 175 l 25 251 q 63 386 25 329 q 165 476 100 444 q 314 508 230 508 l 314 508 q 465 475 400 508 q 566 385 530 443 q 602 251 602 328 l 602 251 q 566 115 602 174 q 464 24 529 57 q 313 -8 399 -8 m 315 142 l 315 142 q 383 172 356 142 q 409 251 409 203 l 409 251 q 383 329 409 299 q 317 360 357 360 l 317 360 q 248 329 274 360 q 221 251 221 299 l 221 251 q 248 172 221 203 q 315 142 274 142"},"p":{"ha":695,"x_min":50,"x_max":670,"o":"m 261 93 l 261 -158 l 50 -189 l 50 501 l 258 501 l 258 392 q 330 481 284 454 q 424 508 375 508 l 424 508 q 550 475 494 508 q 638 386 605 443 q 670 253 670 329 l 670 253 q 638 118 670 177 q 550 25 605 59 q 424 -8 494 -8 l 424 -8 q 324 18 364 -8 q 261 93 284 44 l 261 93 m 359 150 l 359 150 q 431 179 402 150 q 460 250 460 208 l 460 250 q 431 321 460 292 q 359 350 402 350 l 359 350 q 289 322 318 350 q 260 252 260 295 l 260 252 q 289 179 260 209 q 359 150 318 150"},"q":{"ha":695,"x_min":25,"x_max":645,"o":"m 645 -158 l 434 -189 l 434 93 q 371 18 411 44 q 271 -8 331 -8 l 271 -8 q 146 25 202 -8 q 58 118 90 59 q 25 253 25 177 l 25 253 q 58 386 25 329 q 146 475 90 443 q 271 508 202 508 l 271 508 q 366 481 320 508 q 437 392 412 454 l 437 392 l 437 501 l 645 501 l 645 -158 m 336 150 l 336 150 q 406 179 377 150 q 435 252 435 209 l 435 252 q 406 322 435 295 q 336 350 377 350 l 336 350 q 264 321 293 350 q 235 250 235 292 l 235 250 q 264 179 235 208 q 336 150 293 150"},"r":{"ha":447,"x_min":50,"x_max":447,"o":"m 261 0 l 50 0 l 50 501 l 258 501 l 258 376 q 321 476 278 444 q 422 508 363 508 l 422 508 l 447 331 q 400 334 423 334 l 400 334 q 261 220 261 334 l 261 220 l 261 0"},"s":{"ha":456,"x_min":34,"x_max":436,"o":"m 211 -8 l 211 -8 q 120 1 166 -8 q 37 26 74 10 l 37 26 l 66 152 q 129 131 89 140 q 200 123 169 123 l 200 123 q 250 150 250 123 l 250 150 q 235 169 250 163 q 195 179 219 175 q 142 191 170 184 q 90 214 114 199 q 50 259 65 230 q 34 335 34 288 l 34 335 q 97 461 34 414 q 268 508 159 508 l 268 508 q 347 502 310 508 q 416 477 383 496 l 416 477 l 395 355 q 284 377 342 377 l 284 377 q 231 371 247 377 q 214 351 214 365 l 214 351 q 230 334 214 340 q 272 322 246 328 q 325 307 297 317 q 379 281 353 298 q 420 235 404 264 q 436 162 436 207 l 436 162 q 377 37 436 82 q 211 -8 318 -8"},"t":{"ha":414,"x_min":0,"x_max":392,"o":"m 264 -8 l 264 -8 q 149 16 193 -8 q 84 81 104 40 q 64 173 64 122 l 64 173 l 64 377 l 0 377 l 0 501 l 79 501 l 172 659 l 275 659 l 275 501 l 391 501 l 391 377 l 275 377 l 275 202 q 290 166 275 179 q 329 154 305 154 l 329 154 q 377 166 353 154 l 377 166 l 392 27 q 331 1 368 10 q 264 -8 294 -8"},"u":{"ha":625,"x_min":45,"x_max":580,"o":"m 315 -8 l 315 -8 q 117 56 188 -8 q 45 235 45 121 l 45 235 l 45 501 l 251 501 l 251 226 q 269 167 251 186 q 316 148 286 148 l 316 148 q 362 167 345 148 q 378 226 378 186 l 378 226 l 378 501 l 580 501 l 580 235 q 511 56 580 120 q 315 -8 441 -8"},"v":{"ha":572,"x_min":-9,"x_max":578,"o":"m 409 0 l 166 0 l -9 501 l 223 501 l 310 201 l 395 501 l 578 501 l 409 0"},"w":{"ha":871,"x_min":13,"x_max":863,"o":"m 374 0 l 143 0 l 13 501 l 227 501 l 294 186 l 373 501 l 545 501 l 625 178 l 692 501 l 863 501 l 742 0 l 503 0 l 437 255 l 374 0"},"x":{"ha":551,"x_min":3,"x_max":553,"o":"m 214 0 l 3 0 l 155 260 l 13 501 l 224 501 l 280 383 l 338 501 l 543 501 l 403 260 l 553 0 l 348 0 l 280 128 l 214 0"},"y":{"ha":666,"x_min":45,"x_max":616,"o":"m 313 -195 l 313 -195 q 242 -190 275 -195 q 190 -178 209 -185 l 190 -178 l 206 -33 q 245 -40 224 -37 q 286 -42 266 -42 l 286 -42 q 383 -14 353 -42 q 412 72 412 14 l 412 72 l 412 129 q 344 40 388 68 q 240 13 300 13 l 240 13 q 96 80 147 13 q 45 271 45 148 l 45 271 l 45 501 l 256 501 l 256 260 q 319 171 256 171 l 319 171 q 382 203 358 171 q 405 287 405 235 l 405 287 l 405 501 l 616 501 l 616 117 q 537 -119 616 -43 q 313 -195 458 -195"},"z":{"ha":488,"x_min":30,"x_max":457,"o":"m 457 0 l 30 0 l 30 107 l 211 363 l 37 363 l 37 501 l 453 501 l 453 393 l 281 138 l 457 138 l 457 0"},"{":{"ha":457,"x_min":40,"x_max":435,"o":"m 435 -89 l 435 -194 q 271 -145 342 -187 q 159 -35 200 -103 q 112 118 117 33 l 112 118 q 40 192 109 184 l 40 192 l 40 326 q 92 347 73 330 q 112 399 111 365 l 112 399 q 159 554 117 487 q 272 663 201 622 q 435 712 343 704 l 435 712 l 435 607 q 374 535 396 592 q 345 399 351 479 l 345 399 q 317 311 341 342 q 252 259 293 281 l 252 259 q 318 206 294 236 q 345 118 341 176 l 345 118 q 375 -20 351 35 q 435 -89 398 -75 l 435 -89"},"|":{"ha":293,"x_min":55,"x_max":238,"o":"m 238 -170 l 55 -170 l 55 688 l 238 688 l 238 -170"},"}":{"ha":457,"x_min":22,"x_max":417,"o":"m 22 -194 l 22 -194 l 22 -89 q 83 -20 59 -75 q 112 118 106 35 l 112 118 q 140 206 117 176 q 205 259 163 236 l 205 259 q 141 311 164 281 q 112 399 117 342 l 112 399 q 84 535 106 479 q 22 607 61 592 l 22 607 l 22 712 q 185 663 114 704 q 298 554 256 622 q 345 399 340 487 l 345 399 q 366 347 347 365 q 417 326 384 330 l 417 326 l 417 192 q 345 118 348 184 l 345 118 q 299 -35 340 33 q 187 -145 257 -103 q 22 -194 116 -187"},"~":{"ha":600,"x_min":37,"x_max":563,"o":"m 403 140 l 403 140 q 326 154 360 140 q 262 183 292 169 q 199 197 232 197 l 199 197 q 143 150 161 197 l 143 150 l 37 191 q 101 317 57 271 q 197 364 145 364 l 197 364 q 275 350 241 364 q 338 321 308 336 q 401 307 368 307 l 401 307 q 457 354 439 307 l 457 354 l 563 313 q 500 186 544 233 q 403 140 455 140"}}}
